<svg width="643" height="611" viewBox="0 0 643 611" fill="none" xmlns="http://www.w3.org/2000/svg">
<path d="M603.268 0C604.738 0.000100149 606.381 0.738053 604.931 4.60059C604.931 4.60059 553.915 75.9909 525.411 134.143C525.401 134.17 524.219 137.227 527.978 135.866C527.978 135.866 535.199 133.795 542.515 132.41C542.515 132.41 547.786 131.402 544.221 136.729C544.088 136.902 496.227 199.235 457.836 269.131C458.695 269.038 459.56 268.947 460.432 268.857C460.527 268.871 566.771 284.421 640.841 331.897C640.841 331.897 645.113 336.216 638.274 337.079C638.069 337.106 481.68 357.303 379.43 392.796C392.059 419.331 405.457 448.488 419.656 480.565C438.523 517.237 459.943 562.2 476.678 606.518C476.678 606.518 477.703 614.286 470.691 608.244C470.658 608.202 399.701 519.71 298.832 459.704C279.703 448.329 135.013 403.124 132.955 273.176C132.555 247.688 146.211 204.088 134.666 182.497C134.637 182.404 127.756 160.419 94.4775 132.41C94.3404 132.318 62.1633 110.771 9.83496 86.6426C9.83496 86.6426 4.27622 83.9101 0.429688 82.3262C0.416388 82.2978 -1.53628 78.1159 2.99316 78.8711C3.11919 78.9081 84.5618 102.843 114.147 113.412C114.147 113.412 120.476 115.483 126.974 112.549C127.09 112.501 172.054 94.0266 211.62 127.231C211.623 127.234 211.646 127.263 211.648 127.266C216.1 129.588 232.207 140.128 261.798 181.594C262.212 181.249 262.667 180.953 263.084 180.617C264.066 179.8 265.102 179.016 266.178 178.261C267.518 177.258 268.841 176.245 270.224 175.302C283.844 163.511 405.661 61.2542 601.51 0.282227C601.51 0.282227 602.356 0 603.268 0Z" fill="currentColor"/>
</svg>
